<svg xmlns="http://www.w3.org/2000/svg" viewBox="0 0 24 24" fill="#1f1f1f"><path d="M12 0C5.37 0 0 5.37 0 12c0 5.3 3.44 9.8 8.21 11.39.6.11.79-.26.79-.58v-2.23c-3.34.73-4.04-1.42-4.04-1.42-.55-1.39-1.33-1.76-1.33-1.76-1.09-.75.08-.73.08-.73 1.2.08 1.84 1.24 1.84 1.24 1.07 1.83 2.81 1.3 3.49.99.11-.78.42-1.3.76-1.6-2.67-.3-5.47-1.33-5.47-5.93 0-1.31.47-2.38 1.24-3.22-.12-.3-.54-1.52.12-3.17 0 0 1.01-.32 3.3 1.23a11.5 11.5 0 0 1 3-.41c1.02 0 2.05.14 3 .41 2.28-1.55 3.29-1.23 3.29-1.23.66 1.65.24 2.87.12 3.17.77.84 1.23 1.91 1.23 3.22 0 4.61-2.8 5.62-5.48 5.92.43.37.81 1.1.81 2.22v3.29c0 .32.19.69.8.57C20.56 21.8 24 17.3 24 12c0-6.63-5.37-12-12-12z"/></svg>
